<?xml version="1.0" encoding="UTF-8" standalone="no"?>
<!-- Created with Inkscape (http://www.inkscape.org/) -->

<svg
   width="100.30323mm"
   height="101.51714mm"
   viewBox="0 0 100.30323 101.51714"
   version="1.1"
   id="svg1"
   xml:space="preserve"
   inkscape:version="1.3 (0e150ed6c4, 2023-07-21)"
   sodipodi:docname="icon.svg"
   xmlns:inkscape="http://www.inkscape.org/namespaces/inkscape"
   xmlns:sodipodi="http://sodipodi.sourceforge.net/DTD/sodipodi-0.dtd"
   xmlns="http://www.w3.org/2000/svg"
   xmlns:svg="http://www.w3.org/2000/svg"><sodipodi:namedview
     id="namedview1"
     pagecolor="#ffffff"
     bordercolor="#000000"
     borderopacity="0.25"
     inkscape:showpageshadow="2"
     inkscape:pageopacity="0.0"
     inkscape:pagecheckerboard="0"
     inkscape:deskcolor="#d1d1d1"
     inkscape:document-units="mm"
     inkscape:zoom="0.73139029"
     inkscape:cx="112.11524"
     inkscape:cy="306.94966"
     inkscape:window-width="1920"
     inkscape:window-height="1017"
     inkscape:window-x="1912"
     inkscape:window-y="-8"
     inkscape:window-maximized="1"
     inkscape:current-layer="layer1" /><defs
     id="defs1" /><g
     inkscape:label="Layer 1"
     inkscape:groupmode="layer"
     id="layer1"
     transform="translate(-54.728959,-19.427238)"><path
       id="path7"
       style="fill:none;fill-opacity:1;stroke:#ed1b2e;stroke-width:5.29167;stroke-linecap:round;stroke-linejoin:round;stroke-dasharray:10.5833, 10.5833;stroke-dashoffset:0;stroke-opacity:1;paint-order:stroke markers fill"
       d="m 138.67526,36.164718 -21.47053,21.690665 c 3.29615,3.257286 5.15355,7.696977 5.15886,12.331031 -2.2e-4,9.589662 -7.77414,17.363583 -17.3638,17.363798 -4.55926,-0.04079 -8.919578,-1.873193 -12.139308,-5.101498 L 71.409595,104.11974 c 8.896221,9.03386 20.976584,14.13337 33.590195,14.1795 26.30237,0 47.62475,-21.5408 47.625,-48.112826 -1e-5,-12.760657 -5.01783,-24.998681 -13.94953,-34.021696 z" /><path
       id="path1"
       style="fill:#ed1b2e;fill-opacity:1;stroke:#ed1b2e;stroke-width:5.29167;stroke-linecap:round;stroke-linejoin:round;stroke-dasharray:none;stroke-opacity:1;paint-order:stroke markers fill"
       d="m 104.99979,22.073071 c -26.302557,1e-6 -47.625034,21.541115 -47.624998,48.113343 0.04578,12.742384 5.093219,24.946074 14.034803,33.933326 L 92.860482,82.448714 c -3.303578,-3.229587 -5.183951,-7.642541 -5.225004,-12.2623 -7e-5,-9.590065 7.77425,-17.364383 17.364312,-17.364315 4.57232,0.0054 8.95799,1.814065 12.20494,5.033284 L 138.67526,36.164718 C 129.7439,27.142007 117.63049,22.073095 104.99979,22.073071 Z" /><path
       style="font-variation-settings:normal;opacity:1;fill:#ed1b2e;fill-opacity:1;stroke:#ed1b2e;stroke-width:5.29167;stroke-linecap:round;stroke-linejoin:round;stroke-miterlimit:4;stroke-dasharray:none;stroke-dashoffset:0;stroke-opacity:1;paint-order:stroke markers fill;stop-color:#000000;stop-opacity:1"
       d="m 57.375,118.29921 95.25,-96.22616"
       id="path2" /></g></svg>
